<svg xmlns="http://www.w3.org/2000/svg" viewBox="0 0 64 64" role="img" aria-label="Libris">
  <defs>
    <linearGradient id="g" x1="0" x2="1" y1="0" y2="1">
      <stop offset="0" stop-color="#0d6efd"/>
      <stop offset="1" stop-color="#6f42c1"/>
    </linearGradient>
  </defs>
  <rect x="10" y="10" width="44" height="44" rx="12" fill="url(#g)"/>
  <path fill="#fff" d="M23 22h18a5 5 0 0 1 5 5v18h-3V27a2 2 0 0 0-2-2H26v20a4 4 0 0 1-4 4h-1V26a4 4 0 0 1 4-4Zm0 26a1 1 0 0 0 1-1V25h-1a1 1 0 0 0-1 1v22h1Z"/>
</svg>

